HIERARCHY
ROOT hip
{
	OFFSET 0.00000 0.00000 0.00000
	CHANNELS 6 Xposition Yposition Zposition Zrotation Yrotation Xrotation 
	JOINT lhipjoint
	{
		OFFSET 0 0 0
		CHANNELS 3 Zrotation Yrotation Xrotation
		JOINT lfemur
		{
			OFFSET 1.65674 -1.80282 0.62477
			CHANNELS 3 Zrotation Yrotation Xrotation
			JOINT ltibia
			{
				OFFSET 2.59720 -7.13576 0.00000
				CHANNELS 3 Zrotation Yrotation Xrotation
				JOINT lfoot
				{
					OFFSET 2.49236 -6.84770 0.00000
					CHANNELS 3 Zrotation Yrotation Xrotation
					JOINT ltoes
					{
						OFFSET 0.19704 -0.54136 2.14581
						CHANNELS 3 Zrotation Yrotation Xrotation
						End Site
						{
							OFFSET 0.00000 -0.00000 1.11249
						}
					}
				}
			}
		}
	}
	JOINT rhipjoint
	{
		OFFSET 0 0 0
		CHANNELS 3 Zrotation Yrotation Xrotation
		JOINT rfemur
		{
			OFFSET -1.61070 -1.80282 0.62476
			CHANNELS 3 Zrotation Yrotation Xrotation
			JOINT rtibia
			{
				OFFSET -2.59502 -7.12977 0.00000
				CHANNELS 3 Zrotation Yrotation Xrotation
				JOINT rfoot
				{
					OFFSET -2.46780 -6.78024 0.00000
					CHANNELS 3 Zrotation Yrotation Xrotation
					JOINT rtoes
					{
						OFFSET -0.23024 -0.63258 2.13368
						CHANNELS 3 Zrotation Yrotation Xrotation
						End Site
						{
							OFFSET -0.00000 -0.00000 1.11569
						}
					}
				}
			}
		}
	}
	JOINT lowerback
	{
		OFFSET 0 0 0
		CHANNELS 3 Zrotation Yrotation Xrotation
		JOINT upperback
		{
			OFFSET 0.01961 2.05450 -0.14112
			CHANNELS 3 Zrotation Yrotation Xrotation
			JOINT thorax
			{
				OFFSET 0.01021 2.06436 -0.05921
				CHANNELS 3 Zrotation Yrotation Xrotation
				JOINT lowerneck
				{
					OFFSET 0 0 0
					CHANNELS 3 Zrotation Yrotation Xrotation
					JOINT upperneck
					{
						OFFSET 0.00713 1.56711 0.14968
						CHANNELS 3 Zrotation Yrotation Xrotation
						JOINT head
						{
							OFFSET 0.03429 1.56041 -0.10006
							CHANNELS 3 Zrotation Yrotation Xrotation
							End Site
							{
								OFFSET 0.01305 1.62560 -0.05265
							}
						}
					}
				}
				JOINT lclavicle
				{
					OFFSET 0 0 0
					CHANNELS 3 Zrotation Yrotation Xrotation
					JOINT lhumerus
					{
						OFFSET 3.54205 0.90436 -0.17364
						CHANNELS 3 Zrotation Yrotation Xrotation
						JOINT lradius
						{
							OFFSET 4.86513 -0.00000 -0.00000
							CHANNELS 3 Zrotation Yrotation Xrotation
							JOINT lwrist
							{
								OFFSET 3.35554 -0.00000 0.00000
								CHANNELS 3 Zrotation Yrotation Xrotation
								JOINT lhand
								{
									OFFSET 0 0 0
									CHANNELS 3 Zrotation Yrotation Xrotation
									JOINT lfingers
									{
										OFFSET 0.66117 -0.00000 0.00000
										CHANNELS 3 Zrotation Yrotation Xrotation
										End Site
										{
											OFFSET 0.53306 -0.00000 0.00000
										}
									}
								}
								JOINT lthumb
								{
									OFFSET 0 0 0
									CHANNELS 3 Zrotation Yrotation Xrotation
									End Site
									{
										OFFSET 0.54120 -0.00000 0.54120
									}
								}
							}
						}
					}
				}
				JOINT rclavicle
				{
					OFFSET 0 0 0
					CHANNELS 3 Zrotation Yrotation Xrotation
					JOINT rhumerus
					{
						OFFSET -3.49802 0.75994 -0.32616
						CHANNELS 3 Zrotation Yrotation Xrotation
						JOINT rradius
						{
							OFFSET -5.02649 -0.00000 0.00000
							CHANNELS 3 Zrotation Yrotation Xrotation
							JOINT rwrist
							{
								OFFSET -3.36431 -0.00000 0.00000
								CHANNELS 3 Zrotation Yrotation Xrotation
								JOINT rhand
								{
									OFFSET 0 0 0
									CHANNELS 3 Zrotation Yrotation Xrotation
									JOINT rfingers
									{
										OFFSET -0.73041 -0.00000 0.00000
										CHANNELS 3 Zrotation Yrotation Xrotation
										End Site
										{
											OFFSET -0.58887 -0.00000 0.00000
										}
									}
								}
								JOINT rthumb
								{
									OFFSET 0 0 0
									CHANNELS 3 Zrotation Yrotation Xrotation
									End Site
									{
										OFFSET -0.59786 -0.00000 0.59786
									}
								}
							}
						}
					}
				}
			}
		}
	}
}
MOTION
Frames: 15
Frame Time: 0.033333
0.0000 0.0000 0.0000 0.0000 0.0000 0.0000 0.0000 0.0000 0.0000 0 0 0 1.19271e-15 3.97569e-16 4.13804e-33 -7.55382e-15 -3.97569e-16 -3.18055e-15 0.0000 0.0000 0.0000 0.0000 0.0000 0.0000 -7.95139e-16 1.59028e-15 -1.10348e-32 1.19271e-15 -2.38542e-15 -6.26172e-15 5.96354e-15 7.95139e-16 5.26779e-15 0.0000 0.0000 0.0000 0.0000 0.0000 0.0000 0.0000 0.0000 0.0000 0.0000 0.0000 0.0000 0.0000 0.0000 0.0000 0.0000 0.0000 0.0000 0 0 0 0.0000 0.0000 0.0000 -1.18624e-31 -8.54774e-15 1.59028e-15 -1.18624e-31 1.11319e-14 -1.59028e-15 -1.98785e-16 -1.19271e-14 -1.98785e-16 0.0000 0.0000 0.0000 0.0000 0.0000 0.0000 0.0000 0.0000 0.0000 0.0000 0.0000 0.0000 -6.95746e-16 -2.95071e-15 2.98177e-16 2.28602e-15 -3.50979e-15 -2.98177e-16 -1.98785e-15 4.32357e-15 -2.29316e-32 0.0000 0.0000 0.0000 0.0000 0.0000 0.0000 0.0000 0.0000 0.0000 
0.0000 0.0000 0.0000 0.0000 0.0000 0.0000 0.0000 0.0000 0.0000 0.0104062 0.203392 0.0377844 0.0315753 -0.0580109 0.119726 -0.0565155 -0.137463 -0.204505 0.0000 0.0000 0.0000 0.0000 0.0000 0.0000 0.0267754 -0.0803552 -0.0963676 0.00301235 -0.362628 0.201578 -0.0491334 0.394276 0.210269 0.0000 0.0000 0.0000 0.0000 0.0000 0.0000 0.0000 0.0000 0.0000 0.0000 0.0000 0.0000 0.0000 0.0000 0.0000 0.0000 0.0000 0.0000 -0.0559497 0.00665809 -0.00188912 0.0000 0.0000 0.0000 0.0717996 0.0238162 0.122894 -0.0471561 0.000787208 -0.0304095 0.243513 0.0817726 -0.161607 0.0000 0.0000 0.0000 0.0000 0.0000 0.0000 0.0000 0.0000 0.0000 0.0000 0.0000 0.0000 0.0390339 0.086874 -0.0941891 -0.0855854 0.0503354 0.0193618 -0.0584337 -0.0632068 -0.111351 0.0000 0.0000 0.0000 0.0000 0.0000 0.0000 0.0000 0.0000 0.0000 
0.0000 0.0000 0.0000 0.0000 0.0000 0.0000 0.0000 0.0000 0.0000 0.00484777 0.448794 0.0647033 0.0813898 -0.175306 0.254412 -0.118005 -0.258164 -0.41335 0.0000 0.0000 0.0000 0.0000 0.0000 0.0000 -0.0083574 -0.415417 0.102754 0.0662563 -0.310142 0.075679 -0.0885958 0.676759 0.396123 0.0000 0.0000 0.0000 0.0000 0.0000 0.0000 0.0000 0.0000 0.0000 0.0000 0.0000 0.0000 0.0000 0.0000 0.0000 0.0000 0.0000 0.0000 -0.0938003 0.0377504 0.0132316 0.0000 0.0000 0.0000 0.112027 0.0429018 0.269054 -0.0554301 0.0142537 -0.0280176 0.519995 0.177188 -0.313831 0.0000 0.0000 0.0000 0.0000 0.0000 0.0000 0.0000 0.0000 0.0000 0.0000 0.0000 0.0000 0.0723319 0.183564 -0.144542 -0.123038 0.0738771 0.0373128 -0.0587921 -0.0869358 -0.168106 0.0000 0.0000 0.0000 0.0000 0.0000 0.0000 0.0000 0.0000 0.0000 
0.0000 0.0000 0.0000 0.0000 0.0000 0.0000 0.0000 0.0000 0.0000 -0.000692804 0.693282 0.0788731 0.118874 -0.274873 0.410034 -0.16297 -0.396677 -0.623567 0.0000 0.0000 0.0000 0.0000 0.0000 0.0000 -0.0602826 -0.756822 0.255947 0.135482 -0.0986928 -0.0333636 -0.103028 0.826798 0.543466 0.0000 0.0000 0.0000 0.0000 0.0000 0.0000 0.0000 0.0000 0.0000 0.0000 0.0000 0.0000 0.0000 0.0000 0.0000 0.0000 0.0000 0.0000 -0.11129 0.0838303 0.0382789 0.0000 0.0000 0.0000 0.188471 0.0664656 0.434685 -0.100464 0.0195238 -0.000431868 0.7206 0.274946 -0.372733 0.0000 0.0000 0.0000 0.0000 0.0000 0.0000 0.0000 0.0000 0.0000 0.0000 0.0000 0.0000 0.115431 0.285974 -0.17582 -0.151009 0.0705735 0.0603408 0.0269493 -0.0650817 -0.108525 0.0000 0.0000 0.0000 0.0000 0.0000 0.0000 0.0000 0.0000 0.0000 
0.0000 0.0000 0.0000 0.0000 0.0000 0.0000 0.0000 0.0000 0.0000 0.00372811 0.920978 0.0804999 0.136555 -0.401213 0.576417 -0.191817 -0.491254 -0.823026 0.0000 0.0000 0.0000 0.0000 0.0000 0.0000 -0.135438 -1.02179 0.381064 0.222192 0.145971 -0.140146 -0.101177 0.864068 0.667933 0.0000 0.0000 0.0000 0.0000 0.0000 0.0000 0.0000 0.0000 0.0000 0.0000 0.0000 0.0000 0.0000 0.0000 0.0000 0.0000 0.0000 0.0000 -0.125518 0.114768 0.0764754 0.0000 0.0000 0.0000 0.257521 0.0869844 0.59509 -0.126415 0.0347475 0.0485431 0.770089 0.322517 -0.286357 0.0000 0.0000 0.0000 0.0000 0.0000 0.0000 0.0000 0.0000 0.0000 0.0000 0.0000 0.0000 0.158816 0.36374 -0.239335 -0.170428 0.0778116 0.111154 0.147336 -0.0431366 0.0207223 0.0000 0.0000 0.0000 0.0000 0.0000 0.0000 0.0000 0.0000 0.0000 
0.0000 0.0000 0.0000 0.0000 0.0000 0.0000 0.0000 0.0000 0.0000 0.0160871 1.07148 0.0693145 0.141959 -0.481047 0.756344 -0.208097 -0.556538 -1.01231 0.0000 0.0000 0.0000 0.0000 0.0000 0.0000 -0.228249 -1.18158 0.45711 0.338728 0.284262 -0.213705 -0.132263 0.892343 0.78276 0.0000 0.0000 0.0000 0.0000 0.0000 0.0000 0.0000 0.0000 0.0000 0.0000 0.0000 0.0000 0.0000 0.0000 0.0000 0.0000 0.0000 0.0000 -0.144467 0.120226 0.106587 0.0000 0.0000 0.0000 0.3452 0.109262 0.73502 -0.159342 0.0478842 0.111237 0.633186 0.344341 -0.105186 0.0000 0.0000 0.0000 0.0000 0.0000 0.0000 0.0000 0.0000 0.0000 0.0000 0.0000 0.0000 0.205132 0.4074 -0.343396 -0.186687 0.106378 0.162886 0.221989 -0.0484281 0.136511 0.0000 0.0000 0.0000 0.0000 0.0000 0.0000 0.0000 0.0000 0.0000 
0.0000 0.0000 0.0000 0.0000 0.0000 0.0000 0.0000 0.0000 0.0000 0.0310533 1.15261 0.0645609 0.147095 -0.526397 0.918667 -0.230989 -0.588175 -1.18756 0.0000 0.0000 0.0000 0.0000 0.0000 0.0000 -0.313414 -1.16363 0.487643 0.445707 0.272734 -0.231441 -0.178881 0.875739 0.881508 0.0000 0.0000 0.0000 0.0000 0.0000 0.0000 0.0000 0.0000 0.0000 0.0000 0.0000 0.0000 0.0000 0.0000 0.0000 0.0000 0.0000 0.0000 -0.159217 0.0990939 0.0980791 0.0000 0.0000 0.0000 0.40174 0.152417 0.860919 -0.155304 0.0356402 0.150438 0.415337 0.368661 0.107846 0.0000 0.0000 0.0000 0.0000 0.0000 0.0000 0.0000 0.0000 0.0000 0.0000 0.0000 0.0000 0.254108 0.426863 -0.49564 -0.191857 0.137811 0.200558 0.213532 -0.0776036 0.13681 0.0000 0.0000 0.0000 0.0000 0.0000 0.0000 0.0000 0.0000 0.0000 
0.0000 0.0000 0.0000 0.0000 0.0000 0.0000 0.0000 0.0000 0.0000 0.0356231 1.17096 0.0737632 0.157799 -0.566667 1.05097 -0.253824 -0.562413 -1.34645 0.0000 0.0000 0.0000 0.0000 0.0000 0.0000 -0.36768 -1.12424 0.5076 0.517841 0.272483 -0.236153 -0.242693 0.815703 0.983928 0.0000 0.0000 0.0000 0.0000 0.0000 0.0000 0.0000 0.0000 0.0000 0.0000 0.0000 0.0000 0.0000 0.0000 0.0000 0.0000 0.0000 0.0000 -0.163331 0.0669254 0.0542638 0.0000 0.0000 0.0000 0.465075 0.206693 0.967819 -0.161234 0.0197125 0.16024 0.268027 0.404226 0.240989 0.0000 0.0000 0.0000 0.0000 0.0000 0.0000 0.0000 0.0000 0.0000 0.0000 0.0000 0.0000 0.307108 0.447459 -0.628085 -0.179081 0.139441 0.16639 0.145932 -0.144688 0.0452692 0.0000 0.0000 0.0000 0.0000 0.0000 0.0000 0.0000 0.0000 0.0000 
0.0000 0.0000 0.0000 0.0000 0.0000 0.0000 0.0000 0.0000 0.0000 0.0360666 1.13765 0.111203 0.169987 -0.565297 1.13652 -0.284192 -0.526204 -1.49684 0.0000 0.0000 0.0000 0.0000 0.0000 0.0000 -0.386614 -1.09078 0.530208 0.538927 0.253352 -0.223887 -0.303557 0.77424 1.06376 0.0000 0.0000 0.0000 0.0000 0.0000 0.0000 0.0000 0.0000 0.0000 0.0000 0.0000 0.0000 0.0000 0.0000 0.0000 0.0000 0.0000 0.0000 -0.158051 0.0336526 -0.00331686 0.0000 0.0000 0.0000 0.502886 0.263079 1.04934 -0.186191 0.0169186 0.150555 0.2828 0.470548 0.25613 0.0000 0.0000 0.0000 0.0000 0.0000 0.0000 0.0000 0.0000 0.0000 0.0000 0.0000 0.0000 0.361794 0.460778 -0.703923 -0.177429 0.134689 0.133255 0.101671 -0.243752 -0.0325791 0.0000 0.0000 0.0000 0.0000 0.0000 0.0000 0.0000 0.0000 0.0000 
0.0000 0.0000 0.0000 0.0000 0.0000 0.0000 0.0000 0.0000 0.0000 0.0443186 1.06463 0.1726 0.173994 -0.554617 1.17687 -0.32477 -0.46269 -1.63174 0.0000 0.0000 0.0000 0.0000 0.0000 0.0000 -0.383758 -1.12284 0.56006 0.531959 0.243862 -0.19896 -0.355558 0.78216 1.12379 0.0000 0.0000 0.0000 0.0000 0.0000 0.0000 0.0000 0.0000 0.0000 0.0000 0.0000 0.0000 0.0000 0.0000 0.0000 0.0000 0.0000 0.0000 -0.14796 -0.00166207 -0.0690856 0.0000 0.0000 0.0000 0.541679 0.326495 1.11397 -0.228339 0.0241371 0.124602 0.389532 0.527002 0.213856 0.0000 0.0000 0.0000 0.0000 0.0000 0.0000 0.0000 0.0000 0.0000 0.0000 0.0000 0.0000 0.410613 0.450783 -0.722869 -0.177801 0.145726 0.14473 0.0995581 -0.294177 -0.0248868 0.0000 0.0000 0.0000 0.0000 0.0000 0.0000 0.0000 0.0000 0.0000 
0.0000 0.0000 0.0000 0.0000 0.0000 0.0000 0.0000 0.0000 0.0000 0.0633856 0.96946 0.226925 0.161267 -0.550151 1.20764 -0.361958 -0.370557 -1.75337 0.0000 0.0000 0.0000 0.0000 0.0000 0.0000 -0.359569 -1.28969 0.59267 0.504709 0.288395 -0.161721 -0.408919 0.870258 1.15892 0.0000 0.0000 0.0000 0.0000 0.0000 0.0000 0.0000 0.0000 0.0000 0.0000 0.0000 0.0000 0.0000 0.0000 0.0000 0.0000 0.0000 0.0000 -0.146958 -0.0426496 -0.117552 0.0000 0.0000 0.0000 0.574221 0.387088 1.15246 -0.229065 0.0592753 0.135833 0.449589 0.565158 0.105904 0.0000 0.0000 0.0000 0.0000 0.0000 0.0000 0.0000 0.0000 0.0000 0.0000 0.0000 0.0000 0.458555 0.430481 -0.692076 -0.181094 0.160959 0.158403 0.116394 -0.27697 0.0447337 0.0000 0.0000 0.0000 0.0000 0.0000 0.0000 0.0000 0.0000 0.0000 
0.0000 0.0000 0.0000 0.0000 0.0000 0.0000 0.0000 0.0000 0.0000 0.0850943 0.858638 0.279079 0.137794 -0.53615 1.22441 -0.381728 -0.271375 -1.84834 0.0000 0.0000 0.0000 0.0000 0.0000 0.0000 -0.338436 -1.52982 0.617336 0.481665 0.338871 -0.105738 -0.450588 1.0307 1.16931 0.0000 0.0000 0.0000 0.0000 0.0000 0.0000 0.0000 0.0000 0.0000 0.0000 0.0000 0.0000 0.0000 0.0000 0.0000 0.0000 0.0000 0.0000 -0.155747 -0.0851936 -0.135222 0.0000 0.0000 0.0000 0.634049 0.447111 1.16361 -0.2523 0.101314 0.180112 0.459003 0.609228 -0.00666974 0.0000 0.0000 0.0000 0.0000 0.0000 0.0000 0.0000 0.0000 0.0000 0.0000 0.0000 0.0000 0.49357 0.412536 -0.688212 -0.16292 0.164669 0.197 0.124766 -0.234685 0.092487 0.0000 0.0000 0.0000 0.0000 0.0000 0.0000 0.0000 0.0000 0.0000 
0.0000 0.0000 0.0000 0.0000 0.0000 0.0000 0.0000 0.0000 0.0000 0.107808 0.781575 0.326887 0.106236 -0.558898 1.23819 -0.38786 -0.169369 -1.92657 0.0000 0.0000 0.0000 0.0000 0.0000 0.0000 -0.328438 -1.77527 0.615619 0.468391 0.457305 -0.0200938 -0.48382 1.13191 1.16008 0.0000 0.0000 0.0000 0.0000 0.0000 0.0000 0.0000 0.0000 0.0000 0.0000 0.0000 0.0000 0.0000 0.0000 0.0000 0.0000 0.0000 0.0000 -0.174944 -0.127398 -0.125613 0.0000 0.0000 0.0000 0.658048 0.485106 1.15357 -0.265089 0.153804 0.229734 0.443719 0.681128 -0.0903274 0.0000 0.0000 0.0000 0.0000 0.0000 0.0000 0.0000 0.0000 0.0000 0.0000 0.0000 0.0000 0.52844 0.37948 -0.692485 -0.14405 0.179673 0.212452 0.12928 -0.232952 0.132252 0.0000 0.0000 0.0000 0.0000 0.0000 0.0000 0.0000 0.0000 0.0000 
0.0000 0.0000 0.0000 0.0000 0.0000 0.0000 0.0000 0.0000 0.0000 0.118447 0.753854 0.359914 0.0826898 -0.607679 1.26392 -0.382396 -0.0893883 -1.99537 0.0000 0.0000 0.0000 0.0000 0.0000 0.0000 -0.33385 -1.91655 0.609706 0.465419 0.609192 0.076566 -0.509172 1.09619 1.13039 0.0000 0.0000 0.0000 0.0000 0.0000 0.0000 0.0000 0.0000 0.0000 0.0000 0.0000 0.0000 0.0000 0.0000 0.0000 0.0000 0.0000 0.0000 -0.21141 -0.168817 -0.0877056 0.0000 0.0000 0.0000 0.675502 0.501021 1.11932 -0.296234 0.210834 0.274129 0.436721 0.770499 -0.140952 0.0000 0.0000 0.0000 0.0000 0.0000 0.0000 0.0000 0.0000 0.0000 0.0000 0.0000 0.0000 0.567406 0.33537 -0.710489 -0.130274 0.199339 0.198837 0.113807 -0.265014 0.167148 0.0000 0.0000 0.0000 0.0000 0.0000 0.0000 0.0000 0.0000 0.0000 
0.0000 0.0000 0.0000 0.0000 0.0000 0.0000 0.0000 0.0000 0.0000 0.121339 0.765547 0.388915 0.0685029 -0.641527 1.29927 -0.371808 -0.0638211 -2.06654 0.0000 0.0000 0.0000 0.0000 0.0000 0.0000 -0.351508 -1.975 0.609488 0.476991 0.725746 0.177375 -0.535497 1.01278 1.08786 0.0000 0.0000 0.0000 0.0000 0.0000 0.0000 0.0000 0.0000 0.0000 0.0000 0.0000 0.0000 0.0000 0.0000 0.0000 0.0000 0.0000 0.0000 -0.256349 -0.211342 -0.0202327 0.0000 0.0000 0.0000 0.68831 0.503188 1.081 -0.339683 0.27866 0.303654 0.45931 0.842608 -0.183582 0.0000 0.0000 0.0000 0.0000 0.0000 0.0000 0.0000 0.0000 0.0000 0.0000 0.0000 0.0000 0.599014 0.289362 -0.761988 -0.112551 0.201153 0.209944 0.0768514 -0.293063 0.151476 0.0000 0.0000 0.0000 0.0000 0.0000 0.0000 0.0000 0.0000 0.0000 
